G04 MADE WITH FRITZING*
G04 WWW.FRITZING.ORG*
G04 DOUBLE SIDED*
G04 HOLES PLATED*
G04 CONTOUR ON CENTER OF CONTOUR VECTOR*
%ASAXBY*%
%FSLAX23Y23*%
%MOIN*%
%OFA0B0*%
%SFA1.0B1.0*%
%ADD10C,0.092000*%
%ADD11C,0.075000*%
%ADD12C,0.096614*%
%ADD13C,0.089370*%
%ADD14C,0.080925*%
%ADD15C,0.080866*%
%ADD16C,0.085000*%
%ADD17C,0.073000*%
%ADD18C,0.049370*%
%ADD19R,0.092000X0.092000*%
%ADD20R,0.089370X0.089370*%
%ADD21R,0.085000X0.085000*%
%ADD22R,0.001000X0.001000*%
%LNMASK0*%
G90*
G70*
G54D10*
X599Y1771D03*
X599Y1671D03*
X599Y1571D03*
G54D11*
X588Y1296D03*
X688Y1296D03*
X599Y2052D03*
X699Y2052D03*
G54D12*
X1742Y244D03*
X442Y2244D03*
X2842Y2244D03*
X442Y144D03*
X2842Y144D03*
G54D13*
X542Y757D03*
X542Y619D03*
X542Y481D03*
X542Y344D03*
X2042Y2144D03*
X1904Y2144D03*
X1766Y2144D03*
X1342Y2144D03*
X1204Y2144D03*
G54D14*
X2149Y244D03*
G54D15*
X2342Y244D03*
G54D16*
X1442Y444D03*
X1442Y744D03*
X1542Y444D03*
X1542Y744D03*
X1642Y444D03*
X1642Y744D03*
X1742Y444D03*
X1742Y744D03*
X1842Y444D03*
X1842Y744D03*
X1942Y444D03*
X1942Y744D03*
X2042Y444D03*
X2042Y744D03*
X2142Y444D03*
X2142Y744D03*
X2242Y444D03*
X2242Y744D03*
X2342Y444D03*
X2342Y744D03*
X2442Y444D03*
X2442Y744D03*
X2542Y444D03*
X2542Y744D03*
X2642Y444D03*
X2642Y744D03*
X2742Y444D03*
X2742Y744D03*
G54D17*
X1142Y444D03*
X1142Y544D03*
X1142Y644D03*
X1142Y744D03*
X842Y744D03*
X842Y644D03*
X842Y544D03*
X842Y444D03*
G54D16*
X1142Y1244D03*
X1142Y1344D03*
X1142Y1444D03*
X1842Y1244D03*
X1842Y1344D03*
X1842Y1444D03*
X2542Y1244D03*
X2542Y1344D03*
X2542Y1444D03*
X1242Y144D03*
X1242Y544D03*
X942Y1044D03*
X942Y1444D03*
X1642Y1044D03*
X1642Y1444D03*
X2342Y1044D03*
X2342Y1444D03*
X2742Y1244D03*
X2742Y1644D03*
X2042Y1244D03*
X2042Y1644D03*
X1342Y1244D03*
X1342Y1644D03*
X1442Y1244D03*
X1442Y1644D03*
X2842Y1244D03*
X2842Y1644D03*
X2142Y1244D03*
X2142Y1644D03*
G54D10*
X1142Y1744D03*
X1242Y1744D03*
X1342Y1744D03*
X2542Y1744D03*
X2642Y1744D03*
X2742Y1744D03*
X1842Y1744D03*
X1942Y1744D03*
X2042Y1744D03*
G54D18*
X723Y1683D03*
G54D19*
X599Y1771D03*
G54D20*
X542Y757D03*
X2042Y2144D03*
X1342Y2144D03*
G54D21*
X1442Y444D03*
X1142Y1444D03*
X1842Y1444D03*
X2542Y1444D03*
G54D19*
X1142Y1744D03*
X2542Y1744D03*
X1842Y1744D03*
G54D22*
X562Y2090D02*
X635Y2090D01*
X561Y2089D02*
X635Y2089D01*
X561Y2088D02*
X635Y2088D01*
X561Y2087D02*
X635Y2087D01*
X561Y2086D02*
X635Y2086D01*
X561Y2085D02*
X635Y2085D01*
X561Y2084D02*
X635Y2084D01*
X561Y2083D02*
X635Y2083D01*
X561Y2082D02*
X635Y2082D01*
X561Y2081D02*
X635Y2081D01*
X561Y2080D02*
X635Y2080D01*
X561Y2079D02*
X635Y2079D01*
X561Y2078D02*
X635Y2078D01*
X561Y2077D02*
X635Y2077D01*
X561Y2076D02*
X635Y2076D01*
X561Y2075D02*
X635Y2075D01*
X561Y2074D02*
X635Y2074D01*
X561Y2073D02*
X635Y2073D01*
X561Y2072D02*
X635Y2072D01*
X561Y2071D02*
X635Y2071D01*
X561Y2070D02*
X635Y2070D01*
X561Y2069D02*
X635Y2069D01*
X561Y2068D02*
X635Y2068D01*
X561Y2067D02*
X635Y2067D01*
X561Y2066D02*
X635Y2066D01*
X561Y2065D02*
X635Y2065D01*
X561Y2064D02*
X635Y2064D01*
X561Y2063D02*
X635Y2063D01*
X561Y2062D02*
X635Y2062D01*
X561Y2061D02*
X595Y2061D01*
X602Y2061D02*
X635Y2061D01*
X561Y2060D02*
X593Y2060D01*
X604Y2060D02*
X635Y2060D01*
X561Y2059D02*
X591Y2059D01*
X605Y2059D02*
X635Y2059D01*
X561Y2058D02*
X591Y2058D01*
X606Y2058D02*
X635Y2058D01*
X561Y2057D02*
X590Y2057D01*
X607Y2057D02*
X635Y2057D01*
X561Y2056D02*
X590Y2056D01*
X607Y2056D02*
X635Y2056D01*
X561Y2055D02*
X589Y2055D01*
X607Y2055D02*
X635Y2055D01*
X561Y2054D02*
X589Y2054D01*
X608Y2054D02*
X635Y2054D01*
X561Y2053D02*
X589Y2053D01*
X608Y2053D02*
X635Y2053D01*
X561Y2052D02*
X589Y2052D01*
X608Y2052D02*
X635Y2052D01*
X561Y2051D02*
X589Y2051D01*
X608Y2051D02*
X635Y2051D01*
X561Y2050D02*
X589Y2050D01*
X607Y2050D02*
X635Y2050D01*
X561Y2049D02*
X590Y2049D01*
X607Y2049D02*
X635Y2049D01*
X561Y2048D02*
X590Y2048D01*
X607Y2048D02*
X635Y2048D01*
X561Y2047D02*
X591Y2047D01*
X606Y2047D02*
X635Y2047D01*
X561Y2046D02*
X591Y2046D01*
X605Y2046D02*
X635Y2046D01*
X561Y2045D02*
X593Y2045D01*
X604Y2045D02*
X635Y2045D01*
X561Y2044D02*
X596Y2044D01*
X601Y2044D02*
X635Y2044D01*
X561Y2043D02*
X635Y2043D01*
X561Y2042D02*
X635Y2042D01*
X561Y2041D02*
X635Y2041D01*
X561Y2040D02*
X635Y2040D01*
X561Y2039D02*
X635Y2039D01*
X561Y2038D02*
X635Y2038D01*
X561Y2037D02*
X635Y2037D01*
X561Y2036D02*
X635Y2036D01*
X561Y2035D02*
X635Y2035D01*
X561Y2034D02*
X635Y2034D01*
X561Y2033D02*
X635Y2033D01*
X561Y2032D02*
X635Y2032D01*
X561Y2031D02*
X635Y2031D01*
X561Y2030D02*
X635Y2030D01*
X561Y2029D02*
X635Y2029D01*
X561Y2028D02*
X635Y2028D01*
X561Y2027D02*
X635Y2027D01*
X561Y2026D02*
X635Y2026D01*
X561Y2025D02*
X635Y2025D01*
X561Y2024D02*
X635Y2024D01*
X561Y2023D02*
X635Y2023D01*
X561Y2022D02*
X635Y2022D01*
X561Y2021D02*
X635Y2021D01*
X561Y2020D02*
X635Y2020D01*
X561Y2019D02*
X635Y2019D01*
X561Y2018D02*
X635Y2018D01*
X561Y2017D02*
X635Y2017D01*
X561Y2016D02*
X635Y2016D01*
X550Y1333D02*
X624Y1333D01*
X550Y1332D02*
X624Y1332D01*
X550Y1331D02*
X624Y1331D01*
X550Y1330D02*
X624Y1330D01*
X550Y1329D02*
X624Y1329D01*
X550Y1328D02*
X624Y1328D01*
X550Y1327D02*
X624Y1327D01*
X550Y1326D02*
X624Y1326D01*
X550Y1325D02*
X624Y1325D01*
X550Y1324D02*
X624Y1324D01*
X550Y1323D02*
X624Y1323D01*
X550Y1322D02*
X624Y1322D01*
X550Y1321D02*
X624Y1321D01*
X550Y1320D02*
X624Y1320D01*
X550Y1319D02*
X624Y1319D01*
X550Y1318D02*
X624Y1318D01*
X550Y1317D02*
X624Y1317D01*
X550Y1316D02*
X624Y1316D01*
X550Y1315D02*
X624Y1315D01*
X550Y1314D02*
X624Y1314D01*
X550Y1313D02*
X624Y1313D01*
X550Y1312D02*
X624Y1312D01*
X550Y1311D02*
X624Y1311D01*
X550Y1310D02*
X624Y1310D01*
X550Y1309D02*
X624Y1309D01*
X550Y1308D02*
X624Y1308D01*
X550Y1307D02*
X624Y1307D01*
X550Y1306D02*
X624Y1306D01*
X550Y1305D02*
X624Y1305D01*
X550Y1304D02*
X582Y1304D01*
X592Y1304D02*
X624Y1304D01*
X550Y1303D02*
X581Y1303D01*
X593Y1303D02*
X624Y1303D01*
X550Y1302D02*
X580Y1302D01*
X594Y1302D02*
X624Y1302D01*
X550Y1301D02*
X579Y1301D01*
X595Y1301D02*
X624Y1301D01*
X550Y1300D02*
X578Y1300D01*
X596Y1300D02*
X624Y1300D01*
X550Y1299D02*
X578Y1299D01*
X596Y1299D02*
X624Y1299D01*
X550Y1298D02*
X578Y1298D01*
X596Y1298D02*
X624Y1298D01*
X550Y1297D02*
X578Y1297D01*
X596Y1297D02*
X624Y1297D01*
X550Y1296D02*
X578Y1296D01*
X596Y1296D02*
X624Y1296D01*
X550Y1295D02*
X578Y1295D01*
X596Y1295D02*
X624Y1295D01*
X550Y1294D02*
X578Y1294D01*
X596Y1294D02*
X624Y1294D01*
X550Y1293D02*
X578Y1293D01*
X596Y1293D02*
X624Y1293D01*
X550Y1292D02*
X578Y1292D01*
X596Y1292D02*
X624Y1292D01*
X550Y1291D02*
X579Y1291D01*
X595Y1291D02*
X624Y1291D01*
X550Y1290D02*
X580Y1290D01*
X594Y1290D02*
X624Y1290D01*
X550Y1289D02*
X581Y1289D01*
X593Y1289D02*
X624Y1289D01*
X550Y1288D02*
X582Y1288D01*
X592Y1288D02*
X624Y1288D01*
X550Y1287D02*
X624Y1287D01*
X550Y1286D02*
X624Y1286D01*
X550Y1285D02*
X624Y1285D01*
X550Y1284D02*
X624Y1284D01*
X550Y1283D02*
X624Y1283D01*
X550Y1282D02*
X624Y1282D01*
X550Y1281D02*
X624Y1281D01*
X550Y1280D02*
X624Y1280D01*
X550Y1279D02*
X624Y1279D01*
X550Y1278D02*
X624Y1278D01*
X550Y1277D02*
X624Y1277D01*
X550Y1276D02*
X624Y1276D01*
X550Y1275D02*
X624Y1275D01*
X550Y1274D02*
X624Y1274D01*
X550Y1273D02*
X624Y1273D01*
X550Y1272D02*
X624Y1272D01*
X550Y1271D02*
X624Y1271D01*
X550Y1270D02*
X624Y1270D01*
X550Y1269D02*
X624Y1269D01*
X550Y1268D02*
X624Y1268D01*
X550Y1267D02*
X624Y1267D01*
X550Y1266D02*
X624Y1266D01*
X550Y1265D02*
X624Y1265D01*
X550Y1264D02*
X624Y1264D01*
X550Y1263D02*
X624Y1263D01*
X550Y1262D02*
X624Y1262D01*
X550Y1261D02*
X624Y1261D01*
X550Y1260D02*
X624Y1260D01*
X550Y1259D02*
X624Y1259D01*
D02*
G04 End of Mask0*
M02*