G04 MADE WITH FRITZING*
G04 WWW.FRITZING.ORG*
G04 DOUBLE SIDED*
G04 HOLES PLATED*
G04 CONTOUR ON CENTER OF CONTOUR VECTOR*
%ASAXBY*%
%FSLAX23Y23*%
%MOIN*%
%OFA0B0*%
%SFA1.0B1.0*%
%ADD10C,0.082000*%
%ADD11C,0.079370*%
%ADD12C,0.070925*%
%ADD13C,0.070866*%
%ADD14C,0.075000*%
%ADD15C,0.063000*%
%ADD16C,0.065000*%
%ADD17C,0.039370*%
%ADD18R,0.082000X0.082000*%
%ADD19R,0.079370X0.079370*%
%ADD20R,0.075000X0.075000*%
%ADD21R,0.001000X0.001000*%
%LNCOPPER1*%
G90*
G70*
G54D10*
X599Y1771D03*
X599Y1671D03*
X599Y1571D03*
G54D11*
X542Y757D03*
X542Y619D03*
X542Y481D03*
X542Y344D03*
X2042Y2144D03*
X1904Y2144D03*
X1766Y2144D03*
X1342Y2144D03*
X1204Y2144D03*
G54D12*
X2149Y244D03*
G54D13*
X2342Y244D03*
G54D14*
X1442Y444D03*
X1442Y744D03*
X1542Y444D03*
X1542Y744D03*
X1642Y444D03*
X1642Y744D03*
X1742Y444D03*
X1742Y744D03*
X1842Y444D03*
X1842Y744D03*
X1942Y444D03*
X1942Y744D03*
X2042Y444D03*
X2042Y744D03*
X2142Y444D03*
X2142Y744D03*
X2242Y444D03*
X2242Y744D03*
X2342Y444D03*
X2342Y744D03*
X2442Y444D03*
X2442Y744D03*
X2542Y444D03*
X2542Y744D03*
X2642Y444D03*
X2642Y744D03*
X2742Y444D03*
X2742Y744D03*
G54D15*
X1142Y444D03*
X1142Y544D03*
X1142Y644D03*
X1142Y744D03*
X842Y744D03*
X842Y644D03*
X842Y544D03*
X842Y444D03*
X1142Y444D03*
X1142Y544D03*
X1142Y644D03*
X1142Y744D03*
X842Y744D03*
X842Y644D03*
X842Y544D03*
X842Y444D03*
G54D14*
X1142Y1244D03*
X1142Y1344D03*
X1142Y1444D03*
X1842Y1244D03*
X1842Y1344D03*
X1842Y1444D03*
X2542Y1244D03*
X2542Y1344D03*
X2542Y1444D03*
X1242Y144D03*
X1242Y544D03*
X942Y1044D03*
X942Y1444D03*
X1642Y1044D03*
X1642Y1444D03*
X2342Y1044D03*
X2342Y1444D03*
X2742Y1244D03*
X2742Y1644D03*
X2042Y1244D03*
X2042Y1644D03*
X1342Y1244D03*
X1342Y1644D03*
X1442Y1244D03*
X1442Y1644D03*
X2842Y1244D03*
X2842Y1644D03*
X2142Y1244D03*
X2142Y1644D03*
G54D10*
X1142Y1744D03*
X1242Y1744D03*
X1342Y1744D03*
X2542Y1744D03*
X2642Y1744D03*
X2742Y1744D03*
X1842Y1744D03*
X1942Y1744D03*
X2042Y1744D03*
G54D16*
X599Y2052D03*
X699Y2052D03*
X599Y2052D03*
X699Y2052D03*
X588Y1296D03*
X688Y1296D03*
X588Y1296D03*
X688Y1296D03*
G54D17*
X723Y1683D03*
G54D18*
X599Y1771D03*
G54D19*
X542Y757D03*
X2042Y2144D03*
X1342Y2144D03*
G54D20*
X1442Y444D03*
X1142Y1444D03*
X1842Y1444D03*
X2542Y1444D03*
G54D18*
X1142Y1744D03*
X2542Y1744D03*
X1842Y1744D03*
G54D21*
X567Y2085D02*
X630Y2085D01*
X566Y2084D02*
X630Y2084D01*
X566Y2083D02*
X630Y2083D01*
X566Y2082D02*
X630Y2082D01*
X566Y2081D02*
X630Y2081D01*
X566Y2080D02*
X630Y2080D01*
X566Y2079D02*
X630Y2079D01*
X566Y2078D02*
X630Y2078D01*
X566Y2077D02*
X630Y2077D01*
X566Y2076D02*
X630Y2076D01*
X566Y2075D02*
X630Y2075D01*
X566Y2074D02*
X630Y2074D01*
X566Y2073D02*
X630Y2073D01*
X566Y2072D02*
X630Y2072D01*
X566Y2071D02*
X630Y2071D01*
X566Y2070D02*
X630Y2070D01*
X566Y2069D02*
X630Y2069D01*
X566Y2068D02*
X630Y2068D01*
X566Y2067D02*
X630Y2067D01*
X566Y2066D02*
X595Y2066D01*
X602Y2066D02*
X630Y2066D01*
X566Y2065D02*
X592Y2065D01*
X605Y2065D02*
X630Y2065D01*
X566Y2064D02*
X590Y2064D01*
X607Y2064D02*
X630Y2064D01*
X566Y2063D02*
X589Y2063D01*
X608Y2063D02*
X630Y2063D01*
X566Y2062D02*
X588Y2062D01*
X609Y2062D02*
X630Y2062D01*
X566Y2061D02*
X587Y2061D01*
X610Y2061D02*
X630Y2061D01*
X566Y2060D02*
X586Y2060D01*
X610Y2060D02*
X630Y2060D01*
X566Y2059D02*
X586Y2059D01*
X611Y2059D02*
X630Y2059D01*
X566Y2058D02*
X585Y2058D01*
X611Y2058D02*
X630Y2058D01*
X566Y2057D02*
X585Y2057D01*
X612Y2057D02*
X630Y2057D01*
X566Y2056D02*
X584Y2056D01*
X612Y2056D02*
X630Y2056D01*
X566Y2055D02*
X584Y2055D01*
X612Y2055D02*
X630Y2055D01*
X566Y2054D02*
X584Y2054D01*
X613Y2054D02*
X630Y2054D01*
X566Y2053D02*
X584Y2053D01*
X613Y2053D02*
X630Y2053D01*
X566Y2052D02*
X584Y2052D01*
X613Y2052D02*
X630Y2052D01*
X566Y2051D02*
X584Y2051D01*
X613Y2051D02*
X630Y2051D01*
X566Y2050D02*
X584Y2050D01*
X612Y2050D02*
X630Y2050D01*
X566Y2049D02*
X585Y2049D01*
X612Y2049D02*
X630Y2049D01*
X566Y2048D02*
X585Y2048D01*
X612Y2048D02*
X630Y2048D01*
X566Y2047D02*
X585Y2047D01*
X611Y2047D02*
X630Y2047D01*
X566Y2046D02*
X586Y2046D01*
X611Y2046D02*
X630Y2046D01*
X566Y2045D02*
X586Y2045D01*
X610Y2045D02*
X630Y2045D01*
X566Y2044D02*
X587Y2044D01*
X610Y2044D02*
X630Y2044D01*
X566Y2043D02*
X588Y2043D01*
X609Y2043D02*
X630Y2043D01*
X566Y2042D02*
X589Y2042D01*
X608Y2042D02*
X630Y2042D01*
X566Y2041D02*
X590Y2041D01*
X606Y2041D02*
X630Y2041D01*
X566Y2040D02*
X592Y2040D01*
X604Y2040D02*
X630Y2040D01*
X566Y2039D02*
X595Y2039D01*
X601Y2039D02*
X630Y2039D01*
X566Y2038D02*
X630Y2038D01*
X566Y2037D02*
X630Y2037D01*
X566Y2036D02*
X630Y2036D01*
X566Y2035D02*
X630Y2035D01*
X566Y2034D02*
X630Y2034D01*
X566Y2033D02*
X630Y2033D01*
X566Y2032D02*
X630Y2032D01*
X566Y2031D02*
X630Y2031D01*
X566Y2030D02*
X630Y2030D01*
X566Y2029D02*
X630Y2029D01*
X566Y2028D02*
X630Y2028D01*
X566Y2027D02*
X630Y2027D01*
X566Y2026D02*
X630Y2026D01*
X566Y2025D02*
X630Y2025D01*
X566Y2024D02*
X630Y2024D01*
X566Y2023D02*
X630Y2023D01*
X566Y2022D02*
X630Y2022D01*
X566Y2021D02*
X630Y2021D01*
X555Y1328D02*
X619Y1328D01*
X555Y1327D02*
X619Y1327D01*
X555Y1326D02*
X619Y1326D01*
X555Y1325D02*
X619Y1325D01*
X555Y1324D02*
X619Y1324D01*
X555Y1323D02*
X619Y1323D01*
X555Y1322D02*
X619Y1322D01*
X555Y1321D02*
X619Y1321D01*
X555Y1320D02*
X619Y1320D01*
X555Y1319D02*
X619Y1319D01*
X555Y1318D02*
X619Y1318D01*
X555Y1317D02*
X619Y1317D01*
X555Y1316D02*
X619Y1316D01*
X555Y1315D02*
X619Y1315D01*
X555Y1314D02*
X619Y1314D01*
X555Y1313D02*
X619Y1313D01*
X555Y1312D02*
X619Y1312D01*
X555Y1311D02*
X619Y1311D01*
X555Y1310D02*
X619Y1310D01*
X555Y1309D02*
X582Y1309D01*
X592Y1309D02*
X619Y1309D01*
X555Y1308D02*
X580Y1308D01*
X594Y1308D02*
X619Y1308D01*
X555Y1307D02*
X578Y1307D01*
X596Y1307D02*
X619Y1307D01*
X555Y1306D02*
X577Y1306D01*
X597Y1306D02*
X619Y1306D01*
X555Y1305D02*
X576Y1305D01*
X598Y1305D02*
X619Y1305D01*
X555Y1304D02*
X575Y1304D01*
X599Y1304D02*
X619Y1304D01*
X555Y1303D02*
X575Y1303D01*
X599Y1303D02*
X619Y1303D01*
X555Y1302D02*
X574Y1302D01*
X600Y1302D02*
X619Y1302D01*
X555Y1301D02*
X574Y1301D01*
X600Y1301D02*
X619Y1301D01*
X555Y1300D02*
X573Y1300D01*
X601Y1300D02*
X619Y1300D01*
X555Y1299D02*
X573Y1299D01*
X601Y1299D02*
X619Y1299D01*
X555Y1298D02*
X573Y1298D01*
X601Y1298D02*
X619Y1298D01*
X555Y1297D02*
X573Y1297D01*
X601Y1297D02*
X619Y1297D01*
X555Y1296D02*
X573Y1296D01*
X601Y1296D02*
X619Y1296D01*
X555Y1295D02*
X573Y1295D01*
X601Y1295D02*
X619Y1295D01*
X555Y1294D02*
X573Y1294D01*
X601Y1294D02*
X619Y1294D01*
X555Y1293D02*
X573Y1293D01*
X601Y1293D02*
X619Y1293D01*
X555Y1292D02*
X573Y1292D01*
X601Y1292D02*
X619Y1292D01*
X555Y1291D02*
X574Y1291D01*
X600Y1291D02*
X619Y1291D01*
X555Y1290D02*
X574Y1290D01*
X600Y1290D02*
X619Y1290D01*
X555Y1289D02*
X575Y1289D01*
X599Y1289D02*
X619Y1289D01*
X555Y1288D02*
X575Y1288D01*
X599Y1288D02*
X619Y1288D01*
X555Y1287D02*
X576Y1287D01*
X598Y1287D02*
X619Y1287D01*
X555Y1286D02*
X577Y1286D01*
X597Y1286D02*
X619Y1286D01*
X555Y1285D02*
X578Y1285D01*
X596Y1285D02*
X619Y1285D01*
X555Y1284D02*
X580Y1284D01*
X594Y1284D02*
X619Y1284D01*
X555Y1283D02*
X582Y1283D01*
X592Y1283D02*
X619Y1283D01*
X555Y1282D02*
X619Y1282D01*
X555Y1281D02*
X619Y1281D01*
X555Y1280D02*
X619Y1280D01*
X555Y1279D02*
X619Y1279D01*
X555Y1278D02*
X619Y1278D01*
X555Y1277D02*
X619Y1277D01*
X555Y1276D02*
X619Y1276D01*
X555Y1275D02*
X619Y1275D01*
X555Y1274D02*
X619Y1274D01*
X555Y1273D02*
X619Y1273D01*
X555Y1272D02*
X619Y1272D01*
X555Y1271D02*
X619Y1271D01*
X555Y1270D02*
X619Y1270D01*
X555Y1269D02*
X619Y1269D01*
X555Y1268D02*
X619Y1268D01*
X555Y1267D02*
X619Y1267D01*
X555Y1266D02*
X619Y1266D01*
X555Y1265D02*
X619Y1265D01*
X555Y1264D02*
X619Y1264D01*
D02*
G04 End of Copper1*
M02*