; NON-PLATED HOLES START AT T1
; THROUGH (PLATED) HOLES START AT T100
M48
INCH
T1C0.086614
T100C0.031496
T101C0.015748
T102C0.031555
T103C0.035000
T104C0.032000
T105C0.042000
T106C0.039370
T107C0.027559
%
T1
X004416Y022435
X004416Y001435
X028416Y022435
X028416Y001435
X017416Y002435
T100
X023416Y002435
T101
X007230Y016834
T102
X021485Y002435
T103
X022416Y007435
X016416Y004435
X028416Y012435
X025416Y014435
X027416Y007435
X021416Y016435
X024416Y007435
X018416Y004435
X021416Y012435
X016416Y007435
X026416Y004435
X018416Y014435
X025416Y013435
X018416Y007435
X012416Y005435
X014416Y016435
X020416Y016435
X021416Y004435
X016416Y014435
X027416Y016435
X012416Y001435
X014416Y012435
X026416Y007435
X020416Y012435
X011416Y014435
X016416Y010435
X023416Y004435
X027416Y012435
X023416Y014435
X018416Y013435
X021416Y007435
X015416Y004435
X025416Y012435
X023416Y010435
X009416Y014435
X023416Y007435
X017416Y004435
X011416Y013435
X014416Y004435
X020416Y004435
X009416Y010435
X019416Y004435
X015416Y007435
X025416Y004435
X013416Y016435
X022416Y004435
X018416Y012435
X017416Y007435
X013416Y012435
X027416Y004435
X014416Y007435
X024416Y004435
X020416Y007435
X028416Y016435
X019416Y007435
X011416Y012435
X025416Y007435
T104
X008416Y005435
X011416Y006435
X008416Y006435
X011416Y007435
X011416Y004435
X008416Y007435
X008416Y004435
X011416Y005435
T105
X025416Y017435
X027416Y017435
X012416Y017435
X018416Y017435
X005988Y017707
X020416Y017435
X026416Y017435
X011416Y017435
X013416Y017435
X005988Y016707
X019416Y017435
X005988Y015707
T106
X005416Y003435
X019038Y021435
X013416Y021435
X012038Y021435
X005416Y004813
X005416Y007569
X017660Y021435
X020416Y021435
X005416Y006191
T107
X005988Y020521
X006988Y020521
X005876Y012955
X006876Y012955
T00
M30
